<svg width="100" height="81" viewBox="0 0 100 81" fill="none" xmlns="http://www.w3.org/2000/svg">
<path d="M55.4167 32.0832H26.25L35.8458 22.4874C36.1192 22.2162 36.3362 21.8936 36.4843 21.5382C36.6323 21.1828 36.7086 20.8016 36.7086 20.4165C36.7086 20.0315 36.6323 19.6503 36.4843 19.2949C36.3362 18.9394 36.1192 18.6168 35.8458 18.3457C35.2994 17.8025 34.5601 17.4976 33.7896 17.4976C33.019 17.4976 32.2798 17.8025 31.7333 18.3457L19.2208 30.8874C18.1254 31.9763 17.5065 33.4553 17.5 34.9998C17.5142 36.5343 18.1325 38.0014 19.2208 39.0832L31.7333 51.6248C32.0053 51.8949 32.3277 52.1087 32.6823 52.2541C33.0369 52.3995 33.4167 52.4736 33.7999 52.4723C34.1831 52.4709 34.5623 52.3941 34.9159 52.2462C35.2694 52.0983 35.5904 51.8822 35.8604 51.6102C36.1304 51.3383 36.3443 51.0158 36.4897 50.6612C36.6351 50.3067 36.7092 49.9269 36.7079 49.5437C36.7065 49.1604 36.6297 48.7812 36.4818 48.4277C36.3339 48.0742 36.1178 47.7532 35.8458 47.4832L26.25 37.9165H55.4167C56.1902 37.9165 56.9321 37.6092 57.4791 37.0622C58.026 36.5153 58.3333 35.7734 58.3333 34.9998C58.3333 34.2263 58.026 33.4844 57.4791 32.9375C56.9321 32.3905 56.1902 32.0832 55.4167 32.0832Z" fill="#0047F6"/>
<path d="M82.5003 46C82.4861 44.4655 81.8679 42.9984 80.7795 41.9167L68.267 29.375C67.7205 28.8318 66.9813 28.5269 66.2107 28.5269C65.4402 28.5269 64.701 28.8318 64.1545 29.375C63.8811 29.6461 63.6641 29.9687 63.5161 30.3242C63.368 30.6796 63.2917 31.0608 63.2917 31.4458C63.2917 31.8309 63.368 32.2121 63.5161 32.5675C63.6641 32.9229 63.8811 33.2455 64.1545 33.5167L73.7503 43.0833H44.5837C43.8101 43.0833 43.0682 43.3906 42.5213 43.9376C41.9743 44.4846 41.667 45.2264 41.667 46C41.667 46.7735 41.9743 47.5154 42.5213 48.0624C43.0682 48.6094 43.8101 48.9166 44.5837 48.9166H73.7503L64.1545 58.5125C63.6053 59.0578 63.2952 59.799 63.2925 60.573C63.2897 61.347 63.5946 62.0903 64.1399 62.6395C64.6853 63.1888 65.4265 63.4989 66.2004 63.5016C66.9744 63.5043 67.7178 63.1995 68.267 62.6541L80.7795 50.1125C81.875 49.0235 82.4938 47.5446 82.5003 46Z" fill="#0047F6"/>
</svg>
