<svg width="32" height="32" viewBox="0 0 32 32" fill="none" xmlns="http://www.w3.org/2000/svg">
<rect width="32" height="32" rx="16" fill="#3874FF" fill-opacity="0.7"/>
<path d="M23.5004 16.6583C23.3693 18.0768 22.837 19.4287 21.9656 20.5557C21.0943 21.6826 19.92 22.5382 18.5802 23.0221C17.2403 23.5061 15.7904 23.5984 14.4 23.2884C13.0096 22.9784 11.7362 22.2788 10.7289 21.2715C9.72162 20.2642 9.02202 18.9908 8.712 17.6004C8.40197 16.21 8.49434 14.7601 8.97829 13.4202C9.46224 12.0804 10.3178 10.9061 11.4448 10.0348C12.5717 9.16345 13.9236 8.63109 15.3421 8.5C14.5116 9.62356 14.1119 11.0079 14.2158 12.4012C14.3198 13.7945 14.9203 15.1042 15.9082 16.0922C16.8962 17.0801 18.2059 17.6807 19.5992 17.7846C20.9925 17.8885 22.3769 17.4888 23.5004 16.6583Z" stroke="#F5F8FF" stroke-width="1.67" stroke-linecap="round" stroke-linejoin="round"/>
</svg>
