<svg width="32" height="32" viewBox="0 0 32 32" fill="none" xmlns="http://www.w3.org/2000/svg">
<rect width="32" height="32" rx="16" fill="#FFD885" fill-opacity="0.5"/>
<g clip-path="url(#clip0_12246_59829)">
<g clip-path="url(#clip1_12246_59829)">
<path d="M15.9997 20.1663C18.3009 20.1663 20.1663 18.3009 20.1663 15.9997C20.1663 13.6985 18.3009 11.833 15.9997 11.833C13.6985 11.833 11.833 13.6985 11.833 15.9997C11.833 18.3009 13.6985 20.1663 15.9997 20.1663Z" stroke="#D6700A" stroke-width="1.66667" stroke-linecap="round" stroke-linejoin="round"/>
<path d="M16 6.83301V8.49967" stroke="#D6700A" stroke-width="1.66667" stroke-linecap="round" stroke-linejoin="round"/>
<path d="M16 23.5V25.1667" stroke="#D6700A" stroke-width="1.66667" stroke-linecap="round" stroke-linejoin="round"/>
<path d="M9.5166 9.5166L10.6999 10.6999" stroke="#D6700A" stroke-width="1.66667" stroke-linecap="round" stroke-linejoin="round"/>
<path d="M21.2998 21.2998L22.4831 22.4831" stroke="#D6700A" stroke-width="1.66667" stroke-linecap="round" stroke-linejoin="round"/>
<path d="M6.83301 16H8.49967" stroke="#D6700A" stroke-width="1.66667" stroke-linecap="round" stroke-linejoin="round"/>
<path d="M23.5 16H25.1667" stroke="#D6700A" stroke-width="1.66667" stroke-linecap="round" stroke-linejoin="round"/>
<path d="M9.5166 22.4831L10.6999 21.2998" stroke="#D6700A" stroke-width="1.66667" stroke-linecap="round" stroke-linejoin="round"/>
<path d="M21.2998 10.6999L22.4831 9.5166" stroke="#D6700A" stroke-width="1.66667" stroke-linecap="round" stroke-linejoin="round"/>
</g>
</g>
<defs>
<clipPath id="clip0_12246_59829">
<rect width="20" height="20" fill="white" transform="translate(6 6)"/>
</clipPath>
<clipPath id="clip1_12246_59829">
<rect width="20" height="20" fill="white" transform="translate(6 6)"/>
</clipPath>
</defs>
</svg>
